<svg width="264" height="280" xmlns="http://www.w3.org/2000/svg" xmlns:xlink="http://www.w3.org/1999/xlink" overflow="hidden"><defs><clipPath id="clip0"><path d="M347 28 611 28 611 308 347 308Z" fill-rule="evenodd" clip-rule="evenodd"/></clipPath></defs><g clip-path="url(#clip0)" transform="translate(-347 -28)"><path d="M479.5 100.995C442.38 100.995 412.289 131.218 412.289 168.5 412.289 205.782 442.38 236.005 479.5 236.005 516.62 236.005 546.711 205.782 546.711 168.5 546.711 131.218 516.62 100.995 479.5 100.995ZM479.44 29.5001C484.217 29.5001 488.938 29.7431 493.59 30.2177L504.214 31.8461 504.609 35.7796C510.005 62.2668 533.339 82.1914 561.306 82.1914 569.297 82.1914 576.909 80.5649 583.833 77.6236L583.95 77.56 586.233 80.0832C596.105 92.0969 604.005 105.805 609.438 120.707L609.5 120.937 601.702 127.399C591.229 137.917 584.752 152.449 584.752 168.5 584.752 184.551 591.229 199.083 601.702 209.602L609.38 215.964 606.96 222.605C601.708 235.077 594.695 246.62 586.233 256.917L585.819 257.353 582.489 255.538C575.565 252.596 567.953 250.97 559.962 250.97 531.995 250.97 508.661 270.895 503.264 297.382L502.455 305.45 500.517 305.898C493.644 306.953 486.606 307.5 479.44 307.5 474.663 307.5 469.943 307.257 465.29 306.782L455.096 305.22 454.272 297.011C448.875 270.524 425.541 250.599 397.574 250.599 389.583 250.599 381.971 252.226 375.047 255.167L372.413 256.603 364.68 246.216C360.95 240.67 357.607 234.839 354.692 228.762L349.629 215.857 357.178 209.602C367.651 199.083 374.129 184.551 374.129 168.5 374.129 152.449 367.651 137.917 357.178 127.399L349.5 121.036 351.92 114.395C357.173 101.923 364.186 90.3806 372.647 80.0832L374.964 77.6427 375.047 77.688C381.971 80.6294 389.583 82.2559 397.574 82.2559 425.541 82.2559 448.875 62.3313 454.272 35.8441L454.662 31.9585 458.364 31.1016C465.236 30.047 472.275 29.5001 479.44 29.5001Z" stroke="#4D4D4D" stroke-width="1.33333" stroke-miterlimit="8" fill="#4D4D4D" fill-rule="evenodd"/></g></svg>